HIERARCHY
ROOT newVegas:Hips
{
	OFFSET 0.000000 96.479958 0.000000
	CHANNELS 6 Xposition Yposition Zposition Xrotation Yrotation Zrotation
	JOINT newVegas:Pelvis
	{
		OFFSET 0.000000 0.000000 0.000000
		CHANNELS 3 Xrotation Yrotation Zrotation
		JOINT newVegas:LeftUpLeg
		{
			OFFSET 18.735201 -5.666702 -4.541200
			CHANNELS 3 Xrotation Yrotation Zrotation
			JOINT newVegas:LeftLeg
			{
				OFFSET -0.021200 -31.938179 0.493100
				CHANNELS 3 Xrotation Yrotation Zrotation
				JOINT newVegas:LeftFoot
				{
					OFFSET 0.021200 -31.938179 -4.336299
					CHANNELS 3 Xrotation Yrotation Zrotation
					JOINT newVegas:LeftToeBase
					{
						OFFSET 0.943001 -26.722000 15.023500
						CHANNELS 3 Xrotation Yrotation Zrotation
						End Site
						{
							OFFSET 0.000000 30.670183 0.000000
						}
					}
				}
				JOINT newVegas:Left_PantLeg
				{
					OFFSET 0.663870 -9.044666 -1.108900
					CHANNELS 3 Xrotation Yrotation Zrotation
					End Site
					{
						OFFSET 1.415995 20.635357 0.000000
					}
				}
			}
		}
		JOINT newVegas:RightUpLeg
		{
			OFFSET -18.735201 -5.666702 -4.541200
			CHANNELS 3 Xrotation Yrotation Zrotation
			JOINT newVegas:RightLeg
			{
				OFFSET 0.018946 -31.938133 0.493100
				CHANNELS 3 Xrotation Yrotation Zrotation
				JOINT newVegas:RightFoot
				{
					OFFSET -0.018946 -31.938126 -4.336299
					CHANNELS 3 Xrotation Yrotation Zrotation
					JOINT newVegas:RightToeBase
					{
						OFFSET -0.943001 -26.722004 15.023500
						CHANNELS 3 Xrotation Yrotation Zrotation
						End Site
						{
							OFFSET 0.000000 30.670187 0.000000
						}
					}
				}
				JOINT newVegas:Right_PantLeg
				{
					OFFSET -0.661674 -9.044716 -1.108900
					CHANNELS 3 Xrotation Yrotation Zrotation
					End Site
					{
						OFFSET -1.415958 20.635269 0.000000
					}
				}
			}
		}
	}
	JOINT newVegas:Spine
	{
		OFFSET 0.000000 10.199997 -0.299500
		CHANNELS 3 Xrotation Yrotation Zrotation
		JOINT newVegas:Spine1
		{
			OFFSET 0.000000 11.900002 -1.516600
			CHANNELS 3 Xrotation Yrotation Zrotation
			JOINT newVegas:Spine2
			{
				OFFSET 0.000000 13.600006 -2.842500
				CHANNELS 3 Xrotation Yrotation Zrotation
				JOINT newVegas:Neck
				{
					OFFSET 0.000000 9.624100 -2.890100
					CHANNELS 3 Xrotation Yrotation Zrotation
					JOINT newVegas:Head
					{
						OFFSET 0.000000 14.068802 -1.351900
						CHANNELS 3 Xrotation Yrotation Zrotation
						JOINT newVegas:Hair_Back
						{
							OFFSET 0.000000 3.231903 -17.524799
							CHANNELS 3 Xrotation Yrotation Zrotation
							End Site
							{
								OFFSET 0.000000 19.849884 0.000000
							}
						}
						JOINT newVegas:Hair_Front
						{
							OFFSET 0.000000 31.260406 4.573800
							CHANNELS 3 Xrotation Yrotation Zrotation
							JOINT newVegas:Hair_Front1
							{
								OFFSET 0.000000 2.284103 11.993300
								CHANNELS 3 Xrotation Yrotation Zrotation
								JOINT newVegas:Hair_Front2
								{
									OFFSET 0.000000 2.284103 11.993300
									CHANNELS 3 Xrotation Yrotation Zrotation
									End Site
									{
										OFFSET 0.000000 12.208862 0.000000
									}
								}
							}
						}
						JOINT newVegas:Jowel
						{
							OFFSET 0.000000 -7.458206 6.864100
							CHANNELS 3 Xrotation Yrotation Zrotation
							End Site
							{
								OFFSET 0.000000 19.849884 0.000000
							}
						}
					}
				}
				JOINT newVegas:LeftShoulder
				{
					OFFSET 15.263000 10.923401 -0.547700
					CHANNELS 3 Xrotation Yrotation Zrotation
					JOINT newVegas:LeftArm
					{
						OFFSET 25.438599 -2.830597 -13.032500
						CHANNELS 3 Xrotation Yrotation Zrotation
						JOINT newVegas:LeftForeArm
						{
							OFFSET 29.960503 0.000000 0.000000
							CHANNELS 3 Xrotation Yrotation Zrotation
							JOINT newVegas:LeftHand
							{
								OFFSET 27.849251 0.000000 0.000000
								CHANNELS 3 Xrotation Yrotation Zrotation
								JOINT newVegas:LeftHandThumb1
								{
									OFFSET 4.487587 -3.305161 6.305391
									CHANNELS 3 Xrotation Yrotation Zrotation
									JOINT newVegas:LeftHandThumb2
									{
										OFFSET 5.480453 -3.164139 3.164143
										CHANNELS 3 Xrotation Yrotation Zrotation
										JOINT newVegas:LeftHandThumb3
										{
											OFFSET 5.159721 -2.978973 2.978967
											CHANNELS 3 Xrotation Yrotation Zrotation
											End Site
											{
												OFFSET 2.494507 5.926697 1.738678
											}
										}
									}
								}
								JOINT newVegas:LeftHandIndex1
								{
									OFFSET 18.578728 -0.527832 5.208049
									CHANNELS 3 Xrotation Yrotation Zrotation
									JOINT newVegas:LeftHandIndex2
									{
										OFFSET 3.192009 0.000000 0.000000
										CHANNELS 3 Xrotation Yrotation Zrotation
										JOINT newVegas:LeftHandIndex3
										{
											OFFSET 3.835129 0.000000 0.000000
											CHANNELS 3 Xrotation Yrotation Zrotation
											End Site
											{
												OFFSET -0.034599 3.816971 0.371180
											}
										}
									}
								}
								JOINT newVegas:LeftHandMiddle1
								{
									OFFSET 18.476105 0.000000 0.000000
									CHANNELS 3 Xrotation Yrotation Zrotation
									JOINT newVegas:LeftHandMiddle2
									{
										OFFSET 3.324875 0.000000 0.000000
										CHANNELS 3 Xrotation Yrotation Zrotation
										JOINT newVegas:LeftHandMiddle3
										{
											OFFSET 4.596550 0.000000 0.000000
											CHANNELS 3 Xrotation Yrotation Zrotation
											End Site
											{
												OFFSET 0.057701 4.578827 0.399218
											}
										}
									}
								}
								JOINT newVegas:LeftHandRing1
								{
									OFFSET 17.732719 0.121887 -4.201567
									CHANNELS 3 Xrotation Yrotation Zrotation
									JOINT newVegas:LeftHandRing2
									{
										OFFSET 2.733170 0.000000 0.000000
										CHANNELS 3 Xrotation Yrotation Zrotation
										JOINT newVegas:LeftHandRing3
										{
											OFFSET 3.178268 0.000000 0.000000
											CHANNELS 3 Xrotation Yrotation Zrotation
											End Site
											{
												OFFSET 0.119102 3.170624 0.185394
											}
										}
									}
								}
								JOINT newVegas:LeftHandPinky1
								{
									OFFSET 15.989624 -0.606689 -7.535461
									CHANNELS 3 Xrotation Yrotation Zrotation
									JOINT newVegas:LeftHandPinky2
									{
										OFFSET 2.538986 0.000000 0.000000
										CHANNELS 3 Xrotation Yrotation Zrotation
										JOINT newVegas:LeftHandPinky3
										{
											OFFSET 2.593102 0.000000 0.000000
											CHANNELS 3 Xrotation Yrotation Zrotation
											End Site
											{
												OFFSET -0.150902 2.584198 0.152708
											}
										}
									}
								}
							}
							JOINT newVegas:Left_Sleeve
							{
								OFFSET 0.267448 -0.649796 0.577675
								CHANNELS 3 Xrotation Yrotation Zrotation
								End Site
								{
									OFFSET 0.000000 15.991241 0.000000
								}
							}
							JOINT newVegas:Left_CapeC
							{
								OFFSET 15.715958 -8.608795 -6.935905
								CHANNELS 3 Xrotation Yrotation Zrotation
								JOINT newVegas:Left_CapeC1
								{
									OFFSET 0.000000 -8.688499 0.000000
									CHANNELS 3 Xrotation Yrotation Zrotation
									End Site
									{
										OFFSET 0.000000 8.688499 0.000000
									}
								}
							}
						}
						JOINT newVegas:Left_CapeB
						{
							OFFSET 26.118385 -8.608795 -7.079235
							CHANNELS 3 Xrotation Yrotation Zrotation
							JOINT newVegas:Left_CapeB1
							{
								OFFSET 0.000000 -8.688499 0.000000
								CHANNELS 3 Xrotation Yrotation Zrotation
								End Site
								{
									OFFSET 0.000000 8.688499 0.000000
								}
							}
						}
						JOINT newVegas:Left_CapeA
						{
							OFFSET 5.115639 -8.608795 -10.395809
							CHANNELS 3 Xrotation Yrotation Zrotation
							JOINT newVegas:Left_CapeA1
							{
								OFFSET 0.000000 -8.688499 0.000000
								CHANNELS 3 Xrotation Yrotation Zrotation
								End Site
								{
									OFFSET 0.000000 8.688499 0.000000
								}
							}
						}
					}
				}
				JOINT newVegas:RightShoulder
				{
					OFFSET -15.263000 10.923401 -0.547700
					CHANNELS 3 Xrotation Yrotation Zrotation
					JOINT newVegas:RightArm
					{
						OFFSET -25.438599 -2.830597 -13.032500
						CHANNELS 3 Xrotation Yrotation Zrotation
						JOINT newVegas:RightForeArm
						{
							OFFSET -29.960503 0.000000 0.000000
							CHANNELS 3 Xrotation Yrotation Zrotation
							JOINT newVegas:RightHand
							{
								OFFSET -27.849251 0.000000 0.000000
								CHANNELS 3 Xrotation Yrotation Zrotation
								JOINT newVegas:RightHandThumb1
								{
									OFFSET -4.487587 -3.305161 6.305391
									CHANNELS 3 Xrotation Yrotation Zrotation
									JOINT newVegas:RightHandThumb2
									{
										OFFSET -5.480453 -3.164139 3.164143
										CHANNELS 3 Xrotation Yrotation Zrotation
										JOINT newVegas:RightHandThumb3
										{
											OFFSET -5.159721 -2.978973 2.978967
											CHANNELS 3 Xrotation Yrotation Zrotation
											End Site
											{
												OFFSET -2.494507 5.926697 1.738678
											}
										}
									}
								}
								JOINT newVegas:RightHandIndex1
								{
									OFFSET -18.578728 -0.527832 5.208049
									CHANNELS 3 Xrotation Yrotation Zrotation
									JOINT newVegas:RightHandIndex2
									{
										OFFSET -3.192009 0.000000 0.000000
										CHANNELS 3 Xrotation Yrotation Zrotation
										JOINT newVegas:RightHandIndex3
										{
											OFFSET -3.835129 0.000000 0.000000
											CHANNELS 3 Xrotation Yrotation Zrotation
											End Site
											{
												OFFSET 0.034599 3.816971 0.371180
											}
										}
									}
								}
								JOINT newVegas:RightHandMiddle1
								{
									OFFSET -18.476105 0.000000 0.000000
									CHANNELS 3 Xrotation Yrotation Zrotation
									JOINT newVegas:RightHandMiddle2
									{
										OFFSET -3.324875 0.000000 0.000000
										CHANNELS 3 Xrotation Yrotation Zrotation
										JOINT newVegas:RightHandMiddle3
										{
											OFFSET -4.596550 0.000000 0.000000
											CHANNELS 3 Xrotation Yrotation Zrotation
											End Site
											{
												OFFSET -0.057701 4.578827 0.399218
											}
										}
									}
								}
								JOINT newVegas:RightHandRing1
								{
									OFFSET -17.732719 0.121887 -4.201567
									CHANNELS 3 Xrotation Yrotation Zrotation
									JOINT newVegas:RightHandRing2
									{
										OFFSET -2.733170 0.000000 0.000000
										CHANNELS 3 Xrotation Yrotation Zrotation
										JOINT newVegas:RightHandRing3
										{
											OFFSET -3.178268 0.000000 0.000000
											CHANNELS 3 Xrotation Yrotation Zrotation
											End Site
											{
												OFFSET -0.119102 3.170624 0.185394
											}
										}
									}
								}
								JOINT newVegas:RightHandPinky1
								{
									OFFSET -15.989624 -0.606689 -7.535461
									CHANNELS 3 Xrotation Yrotation Zrotation
									JOINT newVegas:RightHandPinky2
									{
										OFFSET -2.538986 0.000000 0.000000
										CHANNELS 3 Xrotation Yrotation Zrotation
										JOINT newVegas:RightHandPinky3
										{
											OFFSET -2.593102 0.000000 0.000000
											CHANNELS 3 Xrotation Yrotation Zrotation
											End Site
											{
												OFFSET 0.150902 2.584198 0.152708
											}
										}
									}
								}
							}
							JOINT newVegas:Right_CapeC
							{
								OFFSET -15.715958 -8.608795 -6.935905
								CHANNELS 3 Xrotation Yrotation Zrotation
								JOINT newVegas:Right_CapeC1
								{
									OFFSET 0.000000 -8.688499 0.000000
									CHANNELS 3 Xrotation Yrotation Zrotation
									End Site
									{
										OFFSET 0.000000 8.688499 0.000000
									}
								}
							}
							JOINT newVegas:Right_Sleeve
							{
								OFFSET -0.267448 -0.649994 0.577675
								CHANNELS 3 Xrotation Yrotation Zrotation
								End Site
								{
									OFFSET 0.000000 15.991302 0.000000
								}
							}
						}
						JOINT newVegas:Right_CapeA
						{
							OFFSET -5.115540 -8.608795 -10.395824
							CHANNELS 3 Xrotation Yrotation Zrotation
							JOINT newVegas:Right_CapeA1
							{
								OFFSET 0.000000 -8.688499 0.000000
								CHANNELS 3 Xrotation Yrotation Zrotation
								End Site
								{
									OFFSET 0.000000 8.688499 0.000000
								}
							}
						}
						JOINT newVegas:Right_CapeB
						{
							OFFSET -26.118187 -8.608795 -7.079266
							CHANNELS 3 Xrotation Yrotation Zrotation
							JOINT newVegas:Right_CapeB1
							{
								OFFSET 0.000000 -8.688499 0.000000
								CHANNELS 3 Xrotation Yrotation Zrotation
								End Site
								{
									OFFSET 0.000000 8.688499 0.000000
								}
							}
						}
					}
				}
				JOINT newVegas:Left_Collar
				{
					OFFSET 18.625099 8.655502 8.828100
					CHANNELS 3 Xrotation Yrotation Zrotation
					JOINT newVegas:Left_Collar1
					{
						OFFSET 14.783401 10.540405 -1.259500
						CHANNELS 3 Xrotation Yrotation Zrotation
						End Site
						{
							OFFSET 0.000000 18.199875 0.000000
						}
					}
				}
				JOINT newVegas:Collar_Back
				{
					OFFSET 0.000000 15.630707 -20.132601
					CHANNELS 3 Xrotation Yrotation Zrotation
					End Site
					{
						OFFSET 0.000000 22.523010 0.000000
					}
				}
				JOINT newVegas:Left_Peck
				{
					OFFSET 17.239599 -5.132599 25.482599
					CHANNELS 3 Xrotation Yrotation Zrotation
					End Site
					{
						OFFSET 0.000000 22.523010 0.000000
					}
				}
				JOINT newVegas:Right_Peck
				{
					OFFSET -17.239599 -5.132202 25.482599
					CHANNELS 3 Xrotation Yrotation Zrotation
					End Site
					{
						OFFSET 0.000000 22.523010 0.000000
					}
				}
				JOINT newVegas:Right_Collar
				{
					OFFSET -18.625099 8.655792 8.828100
					CHANNELS 3 Xrotation Yrotation Zrotation
					JOINT newVegas:Right_Collar1
					{
						OFFSET -14.783401 10.539993 -1.259500
						CHANNELS 3 Xrotation Yrotation Zrotation
						End Site
						{
							OFFSET 0.000000 18.199631 0.000000
						}
					}
				}
			}
		}
		JOINT newVegas:Belly
		{
			OFFSET 0.000000 -6.540398 9.014299
			CHANNELS 3 Xrotation Yrotation Zrotation
			End Site
			{
				OFFSET 0.000000 11.566666 0.000000
			}
		}
	}
	JOINT newVegas:ElvisFacialAnim_Joint
	{
		OFFSET 1.000000 -95.330101 -8.825800
		CHANNELS 3 Xrotation Yrotation Zrotation
		End Site
		{
			OFFSET 0.000000 35.315800 0.000000
		}
	}
}
MOTION
Frames: 4
Frame Time: 0.016667
105.033127 78.483147 207.448654 -100.689276 -65.856124 -182.914269 0.000000 -0.000001 0.000000 -69.971736 14.058381 33.735445 93.784788 0.729830 -9.235816 18.447832 -10.536774 -5.131960 -0.000001 -0.000001 -0.000001 0.000001 0.000001 -0.000000 -63.553408 29.323512 -54.160798 75.553825 8.275122 -2.209483 -0.290641 0.365994 25.201861 0.000000 0.000000 -0.000000 0.000001 -0.000002 -0.000000 11.548387 1.944776 2.096955 4.854283 11.245306 9.491958 -0.264526 4.650231 6.859580 7.118204 2.743579 2.998163 7.118208 2.743563 2.998158 -0.000001 -0.000002 -0.000004 7.118260 2.743629 2.998147 7.118227 2.743557 2.998179 0.000002 -0.000002 -0.000000 -0.000001 -0.000002 -0.000002 0.094778 -6.199197 -0.123044 9.665283 -8.508380 -0.913034 0.000000 -16.045871 0.000006 35.770452 4.134777 2.795903 -21.849367 -26.533912 3.214721 14.707523 16.467043 -15.962724 0.000003 -0.000003 -0.000001 -1.323879 -11.050858 -6.554831 0.019604 0.479399 -4.683518 0.000001 -0.000001 0.000002 -0.648678 1.485328 -20.430356 0.000903 0.102838 -1.003606 -0.000002 -0.000000 0.000003 5.314374 12.518950 -31.340801 0.021992 0.507684 -4.960402 -0.000003 -0.000001 -0.000000 2.322011 20.828235 -37.538098 0.232410 1.635304 -16.176159 0.000003 0.000002 -0.000002 -0.000002 0.000001 0.000001 -0.000002 0.000001 0.000001 -0.000003 0.000001 0.000001 0.000003 -0.000003 0.000002 0.000003 -0.000003 0.000000 0.000003 -0.000003 0.000002 0.000002 -0.000002 0.000001 0.702718 0.170142 17.086861 -42.474334 9.627227 15.642595 0.000005 21.324547 -0.000005 54.171047 3.808791 -28.436342 -17.608783 2.987700 1.533012 -5.026846 -26.669274 -12.857308 0.000001 -0.000004 -0.000001 0.237645 -2.716276 11.266511 0.242389 -1.484327 18.547365 -0.000002 -0.000002 0.000001 2.290407 -8.097823 24.945374 0.422946 -1.940984 24.583190 -0.000000 -0.000000 0.000001 5.299376 -10.955969 36.062856 0.774645 -2.573984 33.493752 0.000001 0.000001 -0.000000 6.881487 -15.240343 43.779091 0.835655 -2.663772 34.829071 0.000002 0.000003 -0.000001 -0.000002 0.000001 -0.000002 0.000002 0.000001 0.000001 -0.000002 0.000001 -0.000003 0.000001 -0.000002 0.000002 0.000001 -0.000001 0.000000 0.000001 -0.000002 0.000002 0.000001 -0.000001 0.000000 0.000001 0.000000 0.000003 0.000001 0.000000 0.000003 0.000001 0.000000 0.000003 0.000001 0.000000 0.000003 0.000001 0.000000 0.000003 0.000001 0.000000 0.000003 0.000001 0.000000 0.000003 -0.000000 -0.000001 0.000000 0.000000 -0.000001 0.000000 
108.096519 75.335754 211.233856 -99.984694 -65.138708 -183.592971 -0.000000 -0.000000 -0.000000 -70.752837 13.635978 32.717644 94.465143 0.829676 -8.973471 18.719412 -10.397597 -4.564778 -0.000001 0.000000 -0.000001 0.000001 -0.000002 0.000002 -64.272080 28.707828 -54.096710 72.010650 7.939570 -2.803163 3.649797 1.229228 27.706941 -0.000000 -0.000001 0.000001 0.000002 0.000003 -0.000002 11.647501 1.778256 1.578616 5.544252 11.383316 9.197805 -0.042803 4.627740 6.563422 6.775943 2.675981 2.812852 6.775934 2.675955 2.812902 -0.000001 0.000000 -0.000003 6.775943 2.675970 2.812860 6.775980 2.676002 2.812855 0.000002 0.000001 -0.000001 -0.000001 0.000000 -0.000002 0.193426 -6.244324 -0.490225 8.939518 -6.671605 0.394172 -0.000003 -17.704907 -0.000000 40.311787 8.263378 4.360183 -22.662708 -26.776607 3.864299 11.870365 19.263010 -11.470801 -0.000001 -0.000003 -0.000001 0.130008 -11.645898 -0.445221 0.021088 0.497165 -4.857442 -0.000002 0.000001 -0.000001 -0.475359 0.547754 -12.557682 0.000934 0.104592 -1.020722 -0.000000 -0.000001 0.000001 3.960320 12.243251 -23.933497 0.023682 0.526787 -5.147694 0.000002 -0.000001 -0.000001 1.720369 20.344005 -29.864907 0.251802 1.700684 -16.842475 -0.000004 -0.000003 0.000000 -0.000003 -0.000000 -0.000001 -0.000003 -0.000000 -0.000001 -0.000003 -0.000000 -0.000001 0.000001 -0.000003 0.000001 0.000001 -0.000003 0.000000 0.000001 -0.000003 0.000001 -0.000000 -0.000002 -0.000000 0.757834 0.219491 18.065768 -42.841084 9.112753 16.864212 -0.000005 24.910781 0.000004 54.071374 4.622351 -27.029941 -17.424504 3.155042 1.313333 -4.888512 -26.946237 -12.345336 0.000001 -0.000001 0.000001 0.256213 -2.735465 12.032144 0.266319 -1.553853 19.450483 -0.000000 0.000001 0.000002 2.288281 -8.009703 25.439340 0.480164 -2.061422 26.221892 -0.000001 0.000001 0.000002 5.282064 -10.807333 36.655658 0.848290 -2.681832 35.099591 0.000001 0.000001 0.000000 6.682614 -15.123065 43.637870 0.926469 -2.789626 36.737696 -0.000001 0.000002 0.000000 0.000002 -0.000002 0.000002 -0.000000 -0.000000 0.000002 0.000002 -0.000002 0.000003 -0.000001 0.000003 -0.000001 -0.000001 0.000003 -0.000001 -0.000001 0.000003 -0.000001 -0.000001 0.000003 -0.000001 -0.000000 0.000000 0.000000 -0.000000 0.000000 0.000000 -0.000000 0.000000 0.000000 -0.000000 0.000000 0.000000 -0.000000 0.000000 0.000000 -0.000000 0.000000 0.000000 -0.000000 0.000000 0.000000 -0.000000 0.000001 -0.000001 -0.000000 -0.000000 -0.000000 
111.102898 71.694000 215.403656 -98.931848 -65.623385 -184.101342 -0.000000 0.000001 -0.000000 -71.352917 12.949931 30.249381 95.282341 1.114854 -8.224812 18.701080 -9.094160 -3.971442 -0.000003 -0.000000 -0.000001 -0.000001 0.000000 0.000000 -64.000990 27.129211 -55.197207 68.270698 7.581641 -3.516486 6.772333 2.350363 29.952620 0.000001 0.000000 0.000002 0.000001 -0.000002 -0.000002 11.752258 1.499203 1.472789 5.957495 11.339478 9.012858 0.073766 4.191046 6.295746 6.443433 2.599916 2.644406 6.443460 2.599908 2.644445 0.000001 0.000001 0.000002 6.443466 2.599923 2.644415 6.443400 2.599869 2.644441 0.000003 -0.000002 -0.000001 0.000001 0.000001 0.000003 0.268091 -6.237657 -0.973500 7.893504 -4.110897 1.992689 0.000007 -21.678771 0.000001 45.854198 11.612333 6.910735 -24.357788 -27.217474 5.367390 4.744758 23.727326 -0.421160 -0.000002 -0.000002 -0.000008 2.172466 -12.057190 7.954031 0.022639 0.515077 -5.032865 -0.000002 0.000001 0.000001 0.020044 -0.647341 -0.983338 0.000968 0.106385 -1.038265 0.000000 0.000000 0.000002 1.956677 11.211960 -12.644214 0.025453 0.546076 -5.336626 0.000001 0.000001 -0.000004 0.969399 19.372261 -18.258772 0.272111 1.766386 -17.513913 0.000002 0.000000 -0.000002 0.000001 -0.000001 0.000001 0.000001 -0.000001 0.000001 0.000000 -0.000001 0.000001 0.000002 0.000002 0.000002 0.000002 0.000001 -0.000001 0.000002 0.000002 0.000002 0.000001 0.000001 0.000001 0.787630 0.240687 18.556506 -42.487926 7.719447 18.634657 -0.000018 29.131269 -0.000010 53.659595 5.152984 -25.209953 -17.240912 3.321283 1.091996 -4.748501 -27.220682 -11.832482 0.000001 0.000001 -0.000004 0.274456 -2.754161 12.796019 0.291287 -1.622802 20.351549 -0.000001 0.000000 0.000000 2.284460 -7.922238 25.932020 0.540690 -2.179884 27.857046 0.000001 -0.000001 0.000000 5.261795 -10.660288 37.246821 0.924732 -2.787312 36.701981 0.000001 0.000001 -0.000001 6.484883 -15.005227 43.497588 1.021205 -2.912107 38.642321 0.000001 -0.000000 0.000000 0.000000 0.000002 0.000004 0.000000 0.000000 0.000005 0.000000 0.000002 0.000005 -0.000004 0.000003 -0.000000 -0.000004 0.000003 -0.000000 -0.000004 0.000003 -0.000000 -0.000004 0.000003 -0.000000 -0.000000 0.000000 -0.000000 -0.000000 0.000000 -0.000000 -0.000000 0.000000 -0.000000 -0.000000 0.000000 -0.000000 -0.000000 0.000000 -0.000000 -0.000000 0.000000 -0.000000 -0.000000 0.000000 -0.000000 0.000001 -0.000002 0.000000 -0.000000 0.000001 -0.000000 
114.250130 67.480240 219.621750 -98.806247 -65.375108 -186.237183 0.000000 0.000000 0.000000 -72.833292 11.263398 28.259981 96.235152 1.486429 -7.357103 20.241103 -8.667267 -3.388905 -0.000003 0.000000 -0.000000 -0.000002 0.000001 0.000000 -66.109551 27.071477 -54.362165 67.253977 8.189534 -5.434243 8.957719 3.196220 32.831415 0.000000 0.000003 0.000001 -0.000001 -0.000003 -0.000001 11.871099 1.253847 1.721319 6.189663 11.236935 8.879467 0.150937 3.491582 6.062961 6.182253 2.522301 2.501053 6.182247 2.522302 2.501033 0.000001 0.000000 -0.000001 6.182294 2.522324 2.501044 6.182290 2.522284 2.501051 0.000002 -0.000003 -0.000001 0.000001 0.000000 0.000000 0.299032 -6.173944 -1.669668 6.360270 2.416607 3.605610 -0.000006 -28.398069 0.000010 50.134507 13.536606 11.094381 -26.147702 -27.717043 6.953355 -3.260739 25.444449 12.144119 -0.000002 0.000004 -0.000001 4.001856 -11.998682 15.702202 0.024258 0.533128 -5.209769 0.000002 -0.000001 0.000002 0.680427 -1.545814 10.206251 0.000996 0.108234 -1.056272 0.000002 -0.000001 0.000002 0.308142 9.635002 -1.589519 0.027295 0.565507 -5.527078 0.000001 0.000003 0.000005 0.405221 18.245681 -6.886042 0.293341 1.832262 -18.189893 0.000002 0.000000 -0.000002 0.000001 0.000001 -0.000000 0.000001 0.000001 -0.000000 -0.000000 0.000002 -0.000000 -0.000002 0.000004 -0.000003 -0.000001 0.000004 -0.000002 -0.000002 0.000004 -0.000003 -0.000002 0.000005 -0.000003 1.035443 0.349695 19.024059 -41.972943 5.617787 20.313729 0.000004 34.549559 -0.000003 53.342213 5.393182 -23.168620 -17.059688 3.485412 0.870123 -4.607795 -27.490765 -11.322434 -0.000000 -0.000003 -0.000003 0.292220 -2.772315 13.552782 0.317106 -1.690730 21.244344 -0.000004 0.000001 0.000001 2.278994 -7.836073 26.419950 0.603948 -2.295548 29.477310 -0.000001 0.000000 -0.000002 5.238753 -10.515955 37.832233 1.003372 -2.889681 38.289798 0.000001 -0.000001 -0.000000 6.289605 -14.887729 43.359205 1.119030 -3.030245 40.529700 0.000002 0.000002 -0.000000 -0.000003 0.000000 0.000003 -0.000002 -0.000002 0.000001 -0.000002 0.000001 0.000002 0.000003 -0.000001 -0.000000 0.000003 0.000000 -0.000000 0.000003 -0.000001 -0.000000 0.000003 -0.000000 -0.000000 0.000001 0.000000 0.000001 0.000001 0.000000 0.000001 0.000001 0.000000 0.000001 0.000001 0.000000 0.000001 0.000001 0.000000 0.000001 0.000001 0.000000 0.000001 0.000001 0.000000 0.000001 -0.000001 -0.000001 0.000001 0.000000 0.000000 0.000000 
